<?xml version="1.0" encoding="UTF-8" standalone="no" ?>
<!DOCTYPE svg PUBLIC "-//W3C//DTD SVG 1.1//EN" "http://www.w3.org/Graphics/SVG/1.1/DTD/svg11.dtd">
<svg xmlns="http://www.w3.org/2000/svg" xmlns:xlink="http://www.w3.org/1999/xlink" version="1.1" width="1280" height="1024" viewBox="0 0 1280 1024" xml:space="preserve">
<desc>Created with Fabric.js 5.3.0</desc>
<defs>
</defs>
<g transform="matrix(1 0 0 1 640 512)" id="background-logo"  >
<rect style="stroke: none; stroke-width: 0; stroke-dasharray: none; stroke-linecap: butt; stroke-dashoffset: 0; stroke-linejoin: miter; stroke-miterlimit: 4; fill: rgb(255,255,255); fill-rule: nonzero; opacity: 1;"  paint-order="stroke"  x="-640" y="-512" rx="0" ry="0" width="1280" height="1024" />
</g>
<g transform="matrix(1.2557050434329478 0 0 1.2557050434329478 293.91992946066796 404.58375041928963)" id="logo-logo"  >
<g style=""  paint-order="stroke"   >
		<g transform="matrix(0.24224093916507242 0 0 -0.24224093916507244 0 -16.95686574155505)"  >
<path style="stroke: none; stroke-width: 1; stroke-dasharray: none; stroke-linecap: butt; stroke-dashoffset: 0; stroke-linejoin: miter; stroke-miterlimit: 4; fill: rgb(83,113,255); fill-rule: nonzero; opacity: 1;"  paint-order="stroke"  transform=" translate(-508.58799999999997, -577.3475000000001)" d="M 349.188 656.801 C 339.086 631.3910000000001 330.59 605.1020000000001 323.688 578.297 C 320.887 567.9920000000001 318.49199999999996 557.6990000000001 316.387 547.191 C 307.09 502.89500000000004 302.188 457.398 302.09 411.898 L 302.09 388.793 L 508.59 269.496 L 715.086 388.793 L 715.086 411.898 C 714.988 457.398 710.086 502.89500000000004 700.789 547.191 C 676.289 530.59 652.09 511.49600000000004 629.391 490.59000000000003 C 631.9879999999999 471.99600000000004 633.789 453.297 634.5899999999999 434.69100000000003 L 508.5899999999999 361.898 L 382.5859999999999 434.69100000000003 C 383.3869999999999 453.297 385.1909999999999 471.99600000000004 387.7849999999999 490.59000000000003 C 389.3909999999999 502.30100000000004 391.3869999999999 513.8910000000001 393.78899999999993 525.4920000000001 C 399.5899999999999 554.301 407.48799999999994 582.6020000000001 417.28899999999993 609.8980000000001 C 420.78899999999993 619.6910000000001 424.5899999999999 629.3010000000002 428.5899999999999 638.8910000000002 C 449.3909999999999 688.5980000000002 476.5859999999999 734.0000000000002 508.5899999999999 771.7030000000002 C 540.5899999999999 734.0000000000002 567.785 688.5980000000002 588.5899999999999 638.8910000000002 C 610.6879999999999 655.6990000000002 633.387 671.0980000000002 656.2889999999999 684.5940000000002 C 626.1879999999999 751.8980000000001 585.2849999999999 811.8980000000001 536.1879999999999 858.7930000000001 L 508.58999999999986 885.1990000000001 L 480.99199999999985 858.7930000000001 C 431.89099999999985 811.8980000000001 390.99199999999985 751.8980000000001 360.88699999999983 684.594 C 356.6879999999998 675.3950000000001 352.78499999999985 666.195 349.1879999999998 656.801" stroke-linecap="round" />
</g>
		<g transform="matrix(0.24224093916507242 0 0 -0.24224093916507244 0 19.4762926293414)"  >
<path style="stroke: none; stroke-width: 1; stroke-dasharray: none; stroke-linecap: butt; stroke-dashoffset: 0; stroke-linejoin: miter; stroke-miterlimit: 4; fill: rgb(83,113,255); fill-rule: nonzero; opacity: 1;"  paint-order="stroke"  transform=" translate(-508.588, -426.947)" d="M 782.988 709.098 C 753.988 700.492 724.1880000000001 687.7969999999999 694.2850000000001 671.8009999999999 C 685.488 667.0939999999999 676.7850000000001 662.0939999999999 667.988 656.8009999999999 C 644.988 642.992 622.09 627.1909999999999 599.8870000000001 609.8979999999999 C 591.488 603.4019999999999 583.1880000000001 596.598 575.086 589.5939999999999 C 551.785 569.8009999999999 529.488 548.2969999999999 508.59000000000003 525.5899999999999 C 487.69100000000003 548.2969999999999 465.391 569.8009999999999 442.09000000000003 589.5939999999999 C 432.38700000000006 561.1949999999999 424.98800000000006 531.703 419.88700000000006 501.7029999999999 C 440.3910000000001 482.09399999999994 459.78900000000004 460.9999999999999 477.28900000000004 439.0979999999999 L 508.59000000000003 399.8979999999999 L 539.8870000000001 439.0979999999999 C 557.3870000000001 460.9999999999999 576.7850000000001 482.0939999999999 597.2890000000001 501.7029999999999 C 605.7890000000001 509.9959999999999 614.488 517.8949999999999 623.3870000000001 525.492 C 645.9920000000001 545.102 669.59 562.895 693.4920000000001 578.2969999999999 C 702.3870000000001 584.098 711.2890000000001 589.4959999999999 720.191 594.5939999999999 C 731.586 601.1949999999999 743.09 607.1909999999999 754.3910000000001 612.496 L 754.3910000000001 363.793 L 508.59 221.898 L 262.785 363.793 L 262.785 612.496 C 274.086 607.191 285.59000000000003 601.1949999999999 296.98800000000006 594.5939999999999 C 304.18800000000005 620.9019999999999 312.7850000000001 646.8009999999999 322.8910000000001 671.8009999999999 C 292.98800000000006 687.7969999999999 263.1880000000001 700.492 234.18800000000007 709.098 L 182.78500000000008 724.3979999999999 L 182.78500000000008 317.602 L 508.59 129.496 L 834.391 317.602 L 834.391 724.3979999999999 L 782.9879999999999 709.098" stroke-linecap="round" />
</g>
		<g transform="matrix(0.24224093916507242 0 0 -0.24224093916507244 -47.84210100322338 -62.84347676336847)"  >
<path style="stroke: none; stroke-width: 1; stroke-dasharray: none; stroke-linecap: butt; stroke-dashoffset: 0; stroke-linejoin: miter; stroke-miterlimit: 4; fill: rgb(83,113,255); fill-rule: nonzero; opacity: 1;"  paint-order="stroke"  transform=" translate(-311.09, -766.773)" d="M 311.09 713.648 C 340.42999999999995 713.648 364.215 737.426 364.215 766.773 C 364.215 796.1170000000001 340.42999999999995 819.898 311.09 819.898 C 281.75399999999996 819.898 257.965 796.1170000000001 257.965 766.773 C 257.965 737.426 281.75399999999996 713.648 311.09 713.648" stroke-linecap="round" />
</g>
		<g transform="matrix(0.24224093916507242 0 0 -0.24224093916507244 47.84306996698007 -62.84347676336847)"  >
<path style="stroke: none; stroke-width: 1; stroke-dasharray: none; stroke-linecap: butt; stroke-dashoffset: 0; stroke-linejoin: miter; stroke-miterlimit: 4; fill: rgb(83,113,255); fill-rule: nonzero; opacity: 1;"  paint-order="stroke"  transform=" translate(-706.09, -766.773)" d="M 706.09 713.648 C 735.426 713.648 759.215 737.426 759.215 766.773 C 759.215 796.1170000000001 735.426 819.898 706.09 819.898 C 676.746 819.898 652.965 796.1170000000001 652.965 766.773 C 652.965 737.426 676.746 713.648 706.09 713.648" stroke-linecap="round" />
</g>
</g>
</g>
<g transform="matrix(1.9211538461538462 0 0 1.9211538461538462 769.0723630419817 407.8080613423666)" id="text-logo"  >
<g style=""  paint-order="stroke"   >
		<g transform="matrix(1 0 0 1 0 0)" id="text-logo-path-0"  >
<path style="stroke: rgb(255,255,255); stroke-width: 0; stroke-dasharray: none; stroke-linecap: butt; stroke-dashoffset: 0; stroke-linejoin: miter; stroke-miterlimit: 4; fill: rgb(34,8,129); fill-rule: nonzero; opacity: 1;"  paint-order="stroke"  transform=" translate(-163.45499999999998, 18.115000000000002)" d="M 45.3 -6.3 L 48.76 -4.85 Q 49.96 -4.41 49.96 -3.21 L 49.96 -3.21 L 49.96 0 L 34.59 0 L 34.59 -3.21 Q 34.59 -4.28 35.85 -4.85 L 35.85 -4.85 L 37.11 -5.36 L 34.59 -12.22 L 16.44 -12.22 L 13.92 -5.36 L 15.18 -4.85 Q 16.44 -4.28 16.44 -3.21 L 16.44 -3.21 L 16.44 0 L 1.07 0 L 1.07 -3.21 Q 1.07 -4.28 2.33 -4.85 L 2.33 -4.85 L 5.8 -6.3 L 21.17 -45.55 L 29.86 -45.55 L 45.3 -6.3 Z M 18.65 -18.21 L 32.45 -18.21 L 27.22 -32.38 Q 26.46 -34.46 25.52 -37.74 L 25.52 -37.74 L 24.95 -35.78 Q 24.44 -34.08 23.81 -32.32 L 23.81 -32.32 L 18.65 -18.21 Z M 89.52 -23.44 L 89.52 -23.44 Q 90.41 -20.22 90.41 -16.44 L 90.41 -16.44 Q 90.41 -13.04 89.4 -9.7 L 89.4 -9.7 Q 88.52 -6.68 86.63 -4.35 L 86.63 -4.35 Q 84.92 -2.21 82.28 -0.82 L 82.28 -0.82 Q 79.82 0.44 76.48 0.44 L 76.48 0.44 Q 73.71 0.44 71.88 -0.38 L 71.88 -0.38 Q 69.8 -1.32 68.42 -2.71 L 68.42 -2.71 L 68.42 4.28 Q 69.05 4.41 69.52 4.5 Q 69.99 4.6 70.31 4.66 L 70.31 4.66 Q 71.32 4.79 71.25 4.79 L 71.25 4.79 L 71.63 4.85 Q 73.21 5.23 73.21 6.87 L 73.21 6.87 L 73.21 10.52 L 55.88 10.52 L 55.88 6.87 Q 55.88 5.23 57.46 4.85 L 57.46 4.85 L 57.83 4.79 L 58.78 4.66 L 60.67 4.28 L 60.67 -26.08 L 58.78 -26.4 Q 58.46 -26.46 58.24 -26.52 Q 58.02 -26.59 57.83 -26.59 L 57.83 -26.59 L 57.46 -26.65 Q 55.88 -27.03 55.88 -28.6 L 55.88 -28.6 L 55.88 -32.32 L 65.39 -32.32 Q 66.15 -32.32 66.72 -31.94 L 66.72 -31.94 Q 67.22 -31.63 67.41 -30.87 L 67.41 -30.87 L 68.04 -27.91 Q 69.93 -30.05 72.51 -31.5 L 72.51 -31.5 Q 75.03 -32.89 78.44 -32.89 L 78.44 -32.89 Q 81.21 -32.89 83.29 -31.82 L 83.29 -31.82 Q 85.49 -30.68 87.07 -28.6 L 87.07 -28.6 Q 88.64 -26.59 89.52 -23.44 Z M 81.84 -11.53 L 81.84 -11.53 Q 82.34 -13.36 82.34 -16.38 L 82.34 -16.38 Q 82.34 -19.4 81.9 -21.23 L 81.9 -21.23 Q 81.46 -23.12 80.58 -24.38 L 80.58 -24.38 Q 79.69 -25.64 78.5 -26.21 L 78.5 -26.21 Q 77.3 -26.77 75.79 -26.77 L 75.79 -26.77 Q 73.27 -26.77 71.63 -25.77 L 71.63 -25.77 Q 69.87 -24.7 68.42 -22.87 L 68.42 -22.87 L 68.42 -8.38 Q 69.68 -6.8 71.32 -6.11 L 71.32 -6.11 Q 72.77 -5.48 74.66 -5.48 L 74.66 -5.48 Q 76.55 -5.48 77.87 -6.11 L 77.87 -6.11 Q 79.13 -6.68 80.26 -8.13 L 80.26 -8.13 Q 81.33 -9.58 81.84 -11.53 Z M 129.78 -23.44 L 129.78 -23.44 Q 130.66 -20.22 130.66 -16.44 L 130.66 -16.44 Q 130.66 -13.04 129.65 -9.7 L 129.65 -9.7 Q 128.77 -6.68 126.88 -4.35 L 126.88 -4.35 Q 125.18 -2.21 122.53 -0.82 L 122.53 -0.82 Q 120.08 0.44 116.74 0.44 L 116.74 0.44 Q 113.97 0.44 112.14 -0.38 L 112.14 -0.38 Q 110.06 -1.32 108.67 -2.71 L 108.67 -2.71 L 108.67 4.28 Q 109.31 4.41 109.78 4.5 Q 110.25 4.6 110.56 4.66 L 110.56 4.66 Q 111.57 4.79 111.51 4.79 L 111.51 4.79 L 111.89 4.85 Q 113.46 5.23 113.46 6.87 L 113.46 6.87 L 113.46 10.52 L 96.14 10.52 L 96.14 6.87 Q 96.14 5.23 97.71 4.85 L 97.71 4.85 L 98.09 4.79 L 99.04 4.66 L 100.93 4.28 L 100.93 -26.08 L 99.04 -26.4 Q 98.72 -26.46 98.5 -26.52 Q 98.28 -26.59 98.09 -26.59 L 98.09 -26.59 L 97.71 -26.65 Q 96.14 -27.03 96.14 -28.6 L 96.14 -28.6 L 96.14 -32.32 L 105.65 -32.32 Q 106.41 -32.32 106.97 -31.94 L 106.97 -31.94 Q 107.48 -31.63 107.67 -30.87 L 107.67 -30.87 L 108.3 -27.91 Q 110.19 -30.05 112.77 -31.5 L 112.77 -31.5 Q 115.29 -32.89 118.69 -32.89 L 118.69 -32.89 Q 121.46 -32.89 123.54 -31.82 L 123.54 -31.82 Q 125.75 -30.68 127.32 -28.6 L 127.32 -28.6 Q 128.9 -26.59 129.78 -23.44 Z M 122.09 -11.53 L 122.09 -11.53 Q 122.6 -13.36 122.6 -16.38 L 122.6 -16.38 Q 122.6 -19.4 122.16 -21.23 L 122.16 -21.23 Q 121.72 -23.12 120.83 -24.38 L 120.83 -24.38 Q 119.95 -25.64 118.75 -26.21 L 118.75 -26.21 Q 117.56 -26.77 116.05 -26.77 L 116.05 -26.77 Q 113.53 -26.77 111.89 -25.77 L 111.89 -25.77 Q 110.12 -24.7 108.67 -22.87 L 108.67 -22.87 L 108.67 -8.38 Q 109.94 -6.8 111.57 -6.11 L 111.57 -6.11 Q 113.02 -5.48 114.91 -5.48 L 114.91 -5.48 Q 116.8 -5.48 118.13 -6.11 L 118.13 -6.11 Q 119.39 -6.68 120.52 -8.13 L 120.52 -8.13 Q 121.59 -9.58 122.09 -11.53 Z M 152.59 -32.82 L 152.59 -32.82 Q 156.05 -32.82 159.14 -31.63 L 159.14 -31.63 Q 162.16 -30.43 164.18 -28.35 L 164.18 -28.35 Q 166.19 -26.27 167.33 -23.12 L 167.33 -23.12 Q 168.46 -20.03 168.46 -16.25 L 168.46 -16.25 Q 168.46 -12.47 167.33 -9.32 L 167.33 -9.32 Q 166.13 -6.11 164.18 -4.03 L 164.18 -4.03 Q 162.1 -1.83 159.14 -0.69 L 159.14 -0.69 Q 156.24 0.44 152.59 0.44 L 152.59 0.44 Q 148.93 0.44 145.97 -0.69 L 145.97 -0.69 Q 143.01 -1.83 140.93 -4.03 L 140.93 -4.03 Q 138.73 -6.3 137.66 -9.32 L 137.66 -9.32 Q 136.52 -12.47 136.52 -16.25 L 136.52 -16.25 Q 136.52 -20.03 137.66 -23.12 L 137.66 -23.12 Q 138.73 -26.02 140.93 -28.35 L 140.93 -28.35 Q 142.95 -30.43 145.97 -31.63 L 145.97 -31.63 Q 149.06 -32.82 152.59 -32.82 Z M 152.59 -5.54 L 152.59 -5.54 Q 156.62 -5.54 158.51 -8.25 L 158.51 -8.25 Q 160.46 -11.09 160.46 -16.19 L 160.46 -16.19 Q 160.46 -21.29 158.51 -24.13 L 158.51 -24.13 Q 156.62 -26.9 152.59 -26.9 L 152.59 -26.9 Q 148.55 -26.9 146.54 -24.13 L 146.54 -24.13 Q 144.52 -21.36 144.52 -16.13 L 144.52 -16.13 Q 144.52 -11.03 146.54 -8.25 L 146.54 -8.25 Q 148.49 -5.54 152.59 -5.54 Z M 188.24 -41.77 L 188.24 -41.77 Q 188.24 -40.89 187.8 -39.88 L 187.8 -39.88 Q 187.43 -39 186.73 -38.3 L 186.73 -38.3 Q 185.98 -37.55 185.16 -37.23 L 185.16 -37.23 Q 184.21 -36.85 183.2 -36.85 L 183.2 -36.85 Q 182.2 -36.85 181.25 -37.23 L 181.25 -37.23 Q 180.5 -37.55 179.74 -38.3 L 179.74 -38.3 Q 179.05 -39 178.67 -39.88 L 178.67 -39.88 Q 178.29 -40.76 178.29 -41.77 L 178.29 -41.77 Q 178.29 -42.78 178.67 -43.72 L 178.67 -43.72 Q 178.98 -44.54 179.74 -45.3 L 179.74 -45.3 Q 180.43 -45.99 181.25 -46.3 L 181.25 -46.3 Q 182.39 -46.75 183.2 -46.75 L 183.2 -46.75 Q 184.02 -46.75 185.16 -46.3 L 185.16 -46.3 Q 186.1 -45.93 186.73 -45.3 L 186.73 -45.3 Q 187.49 -44.54 187.8 -43.72 L 187.8 -43.72 Q 188.24 -42.65 188.24 -41.77 Z M 189.88 -5.73 L 190.26 -5.67 Q 191.84 -5.29 191.84 -3.72 L 191.84 -3.72 L 191.84 0 L 174.51 0 L 174.51 -3.72 Q 174.51 -5.29 176.09 -5.67 L 176.09 -5.67 L 176.46 -5.73 L 177.41 -5.92 L 179.3 -6.24 L 179.3 -26.08 L 177.41 -26.4 Q 177.09 -26.46 176.87 -26.52 Q 176.65 -26.59 176.46 -26.59 L 176.46 -26.59 L 176.09 -26.65 Q 174.51 -27.03 174.51 -28.6 L 174.51 -28.6 L 174.51 -32.32 L 187.05 -32.32 L 187.05 -6.24 L 188.94 -5.92 Q 189.25 -5.86 189.47 -5.8 Q 189.69 -5.73 189.88 -5.73 L 189.88 -5.73 Z M 233.79 -5.73 L 234.17 -5.67 Q 235.75 -5.29 235.75 -3.72 L 235.75 -3.72 L 235.75 0 L 223.21 0 L 223.21 -20.54 Q 223.21 -23.44 221.82 -25.14 L 221.82 -25.14 Q 220.5 -26.77 217.73 -26.77 L 217.73 -26.77 Q 215.71 -26.77 213.95 -25.83 L 213.95 -25.83 Q 212.06 -24.82 210.61 -23.37 L 210.61 -23.37 L 210.61 -6.24 L 212.44 -5.92 L 213.38 -5.73 L 213.76 -5.67 Q 215.33 -5.29 215.33 -3.72 L 215.33 -3.72 L 215.33 0 L 198.07 0 L 198.07 -3.72 Q 198.07 -5.29 199.65 -5.67 L 199.65 -5.67 L 200.03 -5.73 L 200.97 -5.92 L 202.8 -6.24 L 202.8 -26.08 L 200.97 -26.4 Q 200.66 -26.46 200.43 -26.52 Q 200.21 -26.59 200.03 -26.59 L 200.03 -26.59 L 199.65 -26.65 Q 198.07 -27.03 198.07 -28.6 L 198.07 -28.6 L 198.07 -32.32 L 207.59 -32.32 Q 209.03 -32.32 209.54 -30.87 L 209.54 -30.87 L 210.11 -28.35 Q 210.99 -29.36 212.12 -30.18 L 212.12 -30.18 Q 213 -30.87 214.45 -31.56 L 214.45 -31.56 Q 216.09 -32.32 217.04 -32.51 L 217.04 -32.51 Q 218.61 -32.82 220.06 -32.82 L 220.06 -32.82 Q 222.83 -32.82 224.78 -31.94 L 224.78 -31.94 Q 226.61 -31.18 228.19 -29.42 L 228.19 -29.42 Q 229.51 -27.85 230.27 -25.52 L 230.27 -25.52 Q 230.96 -23.44 230.96 -20.54 L 230.96 -20.54 L 230.96 -6.24 L 232.85 -5.92 Q 233.16 -5.86 233.38 -5.8 Q 233.6 -5.73 233.79 -5.73 L 233.79 -5.73 Z M 255.15 0.5 L 255.15 0.5 Q 250.93 0.5 248.66 -1.89 L 248.66 -1.89 Q 246.39 -4.28 246.39 -8.44 L 246.39 -8.44 L 246.39 -26.46 L 243.12 -26.46 Q 242.61 -26.46 242.05 -26.9 L 242.05 -26.9 Q 241.54 -27.28 241.54 -28.1 L 241.54 -28.1 L 241.54 -31.25 L 246.77 -32.07 L 248.41 -40.89 Q 248.47 -41.45 248.98 -41.83 L 248.98 -41.83 Q 249.48 -42.21 250.17 -42.21 L 250.17 -42.21 L 254.21 -42.21 L 254.21 -32 L 262.71 -32 L 262.71 -26.46 L 254.21 -26.46 L 254.21 -8.95 Q 254.21 -7.5 254.96 -6.62 L 254.96 -6.62 Q 255.72 -5.8 256.98 -5.8 L 256.98 -5.8 Q 257.86 -5.8 258.17 -5.92 L 258.17 -5.92 L 258.99 -6.3 L 259.69 -6.68 Q 259.88 -6.8 260.19 -6.8 L 260.19 -6.8 Q 260.69 -6.8 260.82 -6.68 L 260.82 -6.68 L 261.26 -6.17 L 263.59 -2.39 Q 261.95 -1.07 259.69 -0.25 L 259.69 -0.25 Q 257.54 0.5 255.15 0.5 Z M 283.12 -41.77 L 283.12 -41.77 Q 283.12 -40.89 282.68 -39.88 L 282.68 -39.88 Q 282.3 -39 281.61 -38.3 L 281.61 -38.3 Q 280.85 -37.55 280.04 -37.23 L 280.04 -37.23 Q 279.09 -36.85 278.08 -36.85 L 278.08 -36.85 Q 277.07 -36.85 276.13 -37.23 L 276.13 -37.23 Q 275.37 -37.55 274.62 -38.3 L 274.62 -38.3 Q 273.92 -39 273.55 -39.88 L 273.55 -39.88 Q 273.17 -40.76 273.17 -41.77 L 273.17 -41.77 Q 273.17 -42.78 273.55 -43.72 L 273.55 -43.72 Q 273.86 -44.54 274.62 -45.3 L 274.62 -45.3 Q 275.31 -45.99 276.13 -46.3 L 276.13 -46.3 Q 277.26 -46.75 278.08 -46.75 L 278.08 -46.75 Q 278.9 -46.75 280.04 -46.3 L 280.04 -46.3 Q 280.98 -45.93 281.61 -45.3 L 281.61 -45.3 Q 282.37 -44.54 282.68 -43.72 L 282.68 -43.72 Q 283.12 -42.65 283.12 -41.77 Z M 284.76 -5.73 L 285.14 -5.67 Q 286.71 -5.29 286.71 -3.72 L 286.71 -3.72 L 286.71 0 L 269.39 0 L 269.39 -3.72 Q 269.39 -5.29 270.96 -5.67 L 270.96 -5.67 L 271.34 -5.73 L 272.29 -5.92 L 274.18 -6.24 L 274.18 -26.08 L 272.29 -26.4 Q 271.97 -26.46 271.75 -26.52 Q 271.53 -26.59 271.34 -26.59 L 271.34 -26.59 L 270.96 -26.65 Q 269.39 -27.03 269.39 -28.6 L 269.39 -28.6 L 269.39 -32.32 L 281.93 -32.32 L 281.93 -6.24 L 283.82 -5.92 Q 284.13 -5.86 284.35 -5.8 Q 284.57 -5.73 284.76 -5.73 L 284.76 -5.73 Z M 321.62 -6.11 L 324.26 -5.67 Q 325.84 -5.29 325.84 -3.72 L 325.84 -3.72 L 325.84 0 L 311.79 0 L 311.79 -3.72 Q 311.79 -5.29 313.3 -5.67 L 313.3 -5.67 L 309.02 -12.66 Q 308.76 -11.72 308.2 -10.77 L 308.2 -10.77 L 304.92 -5.73 L 305.3 -5.67 Q 306.87 -5.29 306.87 -3.72 L 306.87 -3.72 L 306.87 0 L 292.82 0 L 292.82 -3.72 Q 292.82 -5.29 294.46 -5.67 L 294.46 -5.67 L 297.11 -6.11 L 304.16 -16.63 L 297.68 -26.21 L 295.09 -26.65 Q 293.52 -27.03 293.52 -28.6 L 293.52 -28.6 L 293.52 -32.32 L 307.5 -32.32 L 307.5 -28.6 Q 307.5 -27.03 305.93 -26.65 L 305.93 -26.65 L 309.77 -20.48 L 310.15 -21.55 Q 310.21 -21.8 310.78 -22.62 L 310.78 -22.62 L 313.24 -26.52 L 312.73 -26.65 Q 311.16 -27.03 311.16 -28.6 L 311.16 -28.6 L 311.16 -32.32 L 325.21 -32.32 L 325.21 -28.6 Q 325.21 -27.03 323.63 -26.65 L 323.63 -26.65 L 320.92 -26.21 L 314.5 -17.01 L 321.62 -6.11 Z" stroke-linecap="round" />
</g>
</g>
</g>
</svg>